<mxfile host="app.diagrams.net" agent="Mozilla/5.0 (Windows NT 10.0; Win64; x64) AppleWebKit/537.36 (KHTML, like Gecko) Chrome/137.0.0.0 Safari/537.36" version="27.1.4">
  <diagram name="Seite-1" id="JE07AmFggX7G4LcvjQL_">
    <mxGraphModel dx="2695" dy="612" grid="1" gridSize="10" guides="1" tooltips="1" connect="1" arrows="1" fold="1" page="1" pageScale="1" pageWidth="827" pageHeight="1169" math="0" shadow="0">
      <root>
        <mxCell id="0" />
        <mxCell id="1" parent="0" />
        <mxCell id="aqW6yxv6mdnGChPtlhDb-2" value="GetStored&lt;div&gt;UserData&lt;/div&gt;&lt;div&gt;from system&lt;/div&gt;" style="rounded=1;whiteSpace=wrap;html=1;absoluteArcSize=1;arcSize=14;strokeWidth=2;" vertex="1" parent="1">
          <mxGeometry x="270" y="150" width="100" height="100" as="geometry" />
        </mxCell>
        <mxCell id="aqW6yxv6mdnGChPtlhDb-5" style="edgeStyle=orthogonalEdgeStyle;rounded=0;orthogonalLoop=1;jettySize=auto;html=1;exitX=0.5;exitY=1;exitDx=0;exitDy=0;exitPerimeter=0;" edge="1" parent="1" source="aqW6yxv6mdnGChPtlhDb-3" target="aqW6yxv6mdnGChPtlhDb-2">
          <mxGeometry relative="1" as="geometry" />
        </mxCell>
        <mxCell id="aqW6yxv6mdnGChPtlhDb-3" value="Start" style="strokeWidth=2;html=1;shape=mxgraph.flowchart.start_1;whiteSpace=wrap;" vertex="1" parent="1">
          <mxGeometry x="270" y="60" width="100" height="60" as="geometry" />
        </mxCell>
        <mxCell id="aqW6yxv6mdnGChPtlhDb-15" value="" style="edgeStyle=orthogonalEdgeStyle;rounded=0;orthogonalLoop=1;jettySize=auto;html=1;" edge="1" parent="1" source="aqW6yxv6mdnGChPtlhDb-4" target="aqW6yxv6mdnGChPtlhDb-14">
          <mxGeometry relative="1" as="geometry" />
        </mxCell>
        <mxCell id="aqW6yxv6mdnGChPtlhDb-4" value="exists?" style="strokeWidth=2;html=1;shape=mxgraph.flowchart.decision;whiteSpace=wrap;" vertex="1" parent="1">
          <mxGeometry x="270" y="280" width="100" height="100" as="geometry" />
        </mxCell>
        <mxCell id="aqW6yxv6mdnGChPtlhDb-6" style="edgeStyle=orthogonalEdgeStyle;rounded=0;orthogonalLoop=1;jettySize=auto;html=1;exitX=0.5;exitY=1;exitDx=0;exitDy=0;entryX=0.5;entryY=0;entryDx=0;entryDy=0;entryPerimeter=0;" edge="1" parent="1" source="aqW6yxv6mdnGChPtlhDb-2" target="aqW6yxv6mdnGChPtlhDb-4">
          <mxGeometry relative="1" as="geometry" />
        </mxCell>
        <mxCell id="aqW6yxv6mdnGChPtlhDb-8" value="" style="rounded=1;whiteSpace=wrap;html=1;absoluteArcSize=1;arcSize=14;strokeWidth=2;" vertex="1" parent="1">
          <mxGeometry x="-1440" y="500" width="100" height="100" as="geometry" />
        </mxCell>
        <mxCell id="aqW6yxv6mdnGChPtlhDb-11" value="no" style="edgeStyle=orthogonalEdgeStyle;rounded=0;orthogonalLoop=1;jettySize=auto;html=1;exitX=1;exitY=0.5;exitDx=0;exitDy=0;exitPerimeter=0;entryX=0;entryY=0.5;entryDx=0;entryDy=0;entryPerimeter=0;" edge="1" parent="1" source="aqW6yxv6mdnGChPtlhDb-4">
          <mxGeometry relative="1" as="geometry">
            <mxPoint x="440" y="330" as="targetPoint" />
          </mxGeometry>
        </mxCell>
        <mxCell id="aqW6yxv6mdnGChPtlhDb-26" value="" style="edgeStyle=orthogonalEdgeStyle;rounded=0;orthogonalLoop=1;jettySize=auto;html=1;" edge="1" parent="1" source="aqW6yxv6mdnGChPtlhDb-14" target="aqW6yxv6mdnGChPtlhDb-25">
          <mxGeometry relative="1" as="geometry" />
        </mxCell>
        <mxCell id="aqW6yxv6mdnGChPtlhDb-14" value="Start App" style="strokeWidth=2;html=1;shape=mxgraph.flowchart.terminator;whiteSpace=wrap;" vertex="1" parent="1">
          <mxGeometry x="270" y="410" width="100" height="60" as="geometry" />
        </mxCell>
        <mxCell id="aqW6yxv6mdnGChPtlhDb-18" value="" style="edgeStyle=orthogonalEdgeStyle;rounded=0;orthogonalLoop=1;jettySize=auto;html=1;" edge="1" parent="1" source="aqW6yxv6mdnGChPtlhDb-16" target="aqW6yxv6mdnGChPtlhDb-17">
          <mxGeometry relative="1" as="geometry" />
        </mxCell>
        <mxCell id="aqW6yxv6mdnGChPtlhDb-16" value="Login" style="verticalLabelPosition=bottom;verticalAlign=top;html=1;shape=process;whiteSpace=wrap;rounded=1;size=0.14;arcSize=6;" vertex="1" parent="1">
          <mxGeometry x="440" y="300" width="100" height="60" as="geometry" />
        </mxCell>
        <mxCell id="aqW6yxv6mdnGChPtlhDb-21" style="edgeStyle=orthogonalEdgeStyle;rounded=0;orthogonalLoop=1;jettySize=auto;html=1;entryX=0.5;entryY=0;entryDx=0;entryDy=0;" edge="1" parent="1" source="aqW6yxv6mdnGChPtlhDb-17" target="aqW6yxv6mdnGChPtlhDb-16">
          <mxGeometry relative="1" as="geometry">
            <Array as="points">
              <mxPoint x="670" y="280" />
              <mxPoint x="490" y="280" />
            </Array>
          </mxGeometry>
        </mxCell>
        <mxCell id="aqW6yxv6mdnGChPtlhDb-22" value="Text" style="edgeLabel;html=1;align=center;verticalAlign=middle;resizable=0;points=[];" vertex="1" connectable="0" parent="aqW6yxv6mdnGChPtlhDb-21">
          <mxGeometry x="-0.4491" relative="1" as="geometry">
            <mxPoint as="offset" />
          </mxGeometry>
        </mxCell>
        <mxCell id="aqW6yxv6mdnGChPtlhDb-17" value="&lt;div&gt;&lt;br&gt;&lt;/div&gt;&lt;div&gt;&lt;br&gt;&lt;/div&gt;&lt;div&gt;correct?&lt;/div&gt;" style="rhombus;whiteSpace=wrap;html=1;verticalAlign=top;rounded=1;arcSize=6;" vertex="1" parent="1">
          <mxGeometry x="630" y="290" width="80" height="80" as="geometry" />
        </mxCell>
        <mxCell id="aqW6yxv6mdnGChPtlhDb-19" style="edgeStyle=orthogonalEdgeStyle;rounded=0;orthogonalLoop=1;jettySize=auto;html=1;entryX=1;entryY=0.5;entryDx=0;entryDy=0;entryPerimeter=0;" edge="1" parent="1" source="aqW6yxv6mdnGChPtlhDb-17" target="aqW6yxv6mdnGChPtlhDb-14">
          <mxGeometry relative="1" as="geometry">
            <Array as="points">
              <mxPoint x="670" y="440" />
            </Array>
          </mxGeometry>
        </mxCell>
        <mxCell id="aqW6yxv6mdnGChPtlhDb-20" value="yes" style="edgeLabel;html=1;align=center;verticalAlign=middle;resizable=0;points=[];" vertex="1" connectable="0" parent="aqW6yxv6mdnGChPtlhDb-19">
          <mxGeometry x="-0.7603" y="-1" relative="1" as="geometry">
            <mxPoint as="offset" />
          </mxGeometry>
        </mxCell>
        <mxCell id="aqW6yxv6mdnGChPtlhDb-31" value="" style="edgeStyle=orthogonalEdgeStyle;rounded=0;orthogonalLoop=1;jettySize=auto;html=1;" edge="1" parent="1" source="aqW6yxv6mdnGChPtlhDb-25" target="aqW6yxv6mdnGChPtlhDb-30">
          <mxGeometry relative="1" as="geometry" />
        </mxCell>
        <mxCell id="aqW6yxv6mdnGChPtlhDb-25" value="Load Artikles" style="verticalLabelPosition=bottom;verticalAlign=top;html=1;shape=process;whiteSpace=wrap;rounded=1;size=0.1;arcSize=6;" vertex="1" parent="1">
          <mxGeometry x="270" y="500" width="100" height="60" as="geometry" />
        </mxCell>
        <mxCell id="aqW6yxv6mdnGChPtlhDb-75" value="" style="edgeStyle=orthogonalEdgeStyle;rounded=0;orthogonalLoop=1;jettySize=auto;html=1;" edge="1" parent="1" source="aqW6yxv6mdnGChPtlhDb-30" target="aqW6yxv6mdnGChPtlhDb-74">
          <mxGeometry relative="1" as="geometry" />
        </mxCell>
        <mxCell id="aqW6yxv6mdnGChPtlhDb-30" value="List Artikels" style="strokeWidth=2;html=1;shape=mxgraph.flowchart.terminator;whiteSpace=wrap;" vertex="1" parent="1">
          <mxGeometry x="270" y="620" width="100" height="60" as="geometry" />
        </mxCell>
        <mxCell id="aqW6yxv6mdnGChPtlhDb-37" value="" style="edgeStyle=orthogonalEdgeStyle;rounded=0;orthogonalLoop=1;jettySize=auto;html=1;" edge="1" parent="1" source="aqW6yxv6mdnGChPtlhDb-32" target="aqW6yxv6mdnGChPtlhDb-36">
          <mxGeometry relative="1" as="geometry" />
        </mxCell>
        <mxCell id="aqW6yxv6mdnGChPtlhDb-32" value="Login" style="strokeWidth=2;html=1;shape=mxgraph.flowchart.start_1;whiteSpace=wrap;" vertex="1" parent="1">
          <mxGeometry x="-310" y="170" width="100" height="60" as="geometry" />
        </mxCell>
        <mxCell id="aqW6yxv6mdnGChPtlhDb-39" value="" style="edgeStyle=orthogonalEdgeStyle;rounded=0;orthogonalLoop=1;jettySize=auto;html=1;" edge="1" parent="1" source="aqW6yxv6mdnGChPtlhDb-36" target="aqW6yxv6mdnGChPtlhDb-38">
          <mxGeometry relative="1" as="geometry" />
        </mxCell>
        <mxCell id="aqW6yxv6mdnGChPtlhDb-36" value="Read inputs" style="strokeWidth=2;html=1;shape=mxgraph.flowchart.terminator;whiteSpace=wrap;" vertex="1" parent="1">
          <mxGeometry x="-310" y="270" width="100" height="60" as="geometry" />
        </mxCell>
        <mxCell id="aqW6yxv6mdnGChPtlhDb-42" value="" style="edgeStyle=orthogonalEdgeStyle;rounded=0;orthogonalLoop=1;jettySize=auto;html=1;" edge="1" parent="1" source="aqW6yxv6mdnGChPtlhDb-38" target="aqW6yxv6mdnGChPtlhDb-40">
          <mxGeometry relative="1" as="geometry" />
        </mxCell>
        <mxCell id="aqW6yxv6mdnGChPtlhDb-38" value="Check if user exist in db" style="strokeWidth=2;html=1;shape=mxgraph.flowchart.terminator;whiteSpace=wrap;" vertex="1" parent="1">
          <mxGeometry x="-310" y="410" width="100" height="60" as="geometry" />
        </mxCell>
        <mxCell id="aqW6yxv6mdnGChPtlhDb-44" value="" style="edgeStyle=orthogonalEdgeStyle;rounded=0;orthogonalLoop=1;jettySize=auto;html=1;" edge="1" parent="1" source="aqW6yxv6mdnGChPtlhDb-40" target="aqW6yxv6mdnGChPtlhDb-43">
          <mxGeometry relative="1" as="geometry" />
        </mxCell>
        <mxCell id="aqW6yxv6mdnGChPtlhDb-40" value="DB" style="strokeWidth=2;html=1;shape=mxgraph.flowchart.database;whiteSpace=wrap;" vertex="1" parent="1">
          <mxGeometry x="-473" y="410" width="60" height="60" as="geometry" />
        </mxCell>
        <mxCell id="aqW6yxv6mdnGChPtlhDb-46" value="" style="edgeStyle=orthogonalEdgeStyle;rounded=0;orthogonalLoop=1;jettySize=auto;html=1;" edge="1" parent="1" source="aqW6yxv6mdnGChPtlhDb-43" target="aqW6yxv6mdnGChPtlhDb-45">
          <mxGeometry relative="1" as="geometry" />
        </mxCell>
        <mxCell id="aqW6yxv6mdnGChPtlhDb-47" value="yes" style="edgeLabel;html=1;align=center;verticalAlign=middle;resizable=0;points=[];" vertex="1" connectable="0" parent="aqW6yxv6mdnGChPtlhDb-46">
          <mxGeometry x="-0.1361" y="-2" relative="1" as="geometry">
            <mxPoint as="offset" />
          </mxGeometry>
        </mxCell>
        <mxCell id="aqW6yxv6mdnGChPtlhDb-43" value="exists?" style="strokeWidth=2;html=1;shape=mxgraph.flowchart.decision;whiteSpace=wrap;" vertex="1" parent="1">
          <mxGeometry x="-493" y="520" width="100" height="100" as="geometry" />
        </mxCell>
        <mxCell id="aqW6yxv6mdnGChPtlhDb-82" value="" style="edgeStyle=orthogonalEdgeStyle;rounded=0;orthogonalLoop=1;jettySize=auto;html=1;" edge="1" parent="1" source="aqW6yxv6mdnGChPtlhDb-45" target="aqW6yxv6mdnGChPtlhDb-81">
          <mxGeometry relative="1" as="geometry" />
        </mxCell>
        <mxCell id="aqW6yxv6mdnGChPtlhDb-45" value="Return user" style="strokeWidth=2;html=1;shape=mxgraph.flowchart.terminator;whiteSpace=wrap;" vertex="1" parent="1">
          <mxGeometry x="-310" y="540" width="100" height="60" as="geometry" />
        </mxCell>
        <mxCell id="aqW6yxv6mdnGChPtlhDb-48" style="edgeStyle=orthogonalEdgeStyle;rounded=0;orthogonalLoop=1;jettySize=auto;html=1;entryX=0;entryY=0.5;entryDx=0;entryDy=0;entryPerimeter=0;" edge="1" parent="1" source="aqW6yxv6mdnGChPtlhDb-43" target="aqW6yxv6mdnGChPtlhDb-36">
          <mxGeometry relative="1" as="geometry">
            <Array as="points">
              <mxPoint x="-560" y="570" />
              <mxPoint x="-560" y="300" />
            </Array>
          </mxGeometry>
        </mxCell>
        <mxCell id="aqW6yxv6mdnGChPtlhDb-49" value="no" style="edgeLabel;html=1;align=center;verticalAlign=middle;resizable=0;points=[];" vertex="1" connectable="0" parent="aqW6yxv6mdnGChPtlhDb-48">
          <mxGeometry x="-0.8768" y="-2" relative="1" as="geometry">
            <mxPoint as="offset" />
          </mxGeometry>
        </mxCell>
        <mxCell id="aqW6yxv6mdnGChPtlhDb-52" value="" style="edgeStyle=orthogonalEdgeStyle;rounded=0;orthogonalLoop=1;jettySize=auto;html=1;" edge="1" parent="1" source="aqW6yxv6mdnGChPtlhDb-50" target="aqW6yxv6mdnGChPtlhDb-51">
          <mxGeometry relative="1" as="geometry" />
        </mxCell>
        <mxCell id="aqW6yxv6mdnGChPtlhDb-50" value="Load Artikels" style="strokeWidth=2;html=1;shape=mxgraph.flowchart.start_1;whiteSpace=wrap;" vertex="1" parent="1">
          <mxGeometry x="-493" y="700" width="100" height="60" as="geometry" />
        </mxCell>
        <mxCell id="aqW6yxv6mdnGChPtlhDb-55" value="" style="edgeStyle=orthogonalEdgeStyle;rounded=0;orthogonalLoop=1;jettySize=auto;html=1;" edge="1" parent="1" source="aqW6yxv6mdnGChPtlhDb-51" target="aqW6yxv6mdnGChPtlhDb-53">
          <mxGeometry relative="1" as="geometry" />
        </mxCell>
        <mxCell id="aqW6yxv6mdnGChPtlhDb-57" value="" style="edgeStyle=orthogonalEdgeStyle;rounded=0;orthogonalLoop=1;jettySize=auto;html=1;" edge="1" parent="1" source="aqW6yxv6mdnGChPtlhDb-51" target="aqW6yxv6mdnGChPtlhDb-56">
          <mxGeometry relative="1" as="geometry" />
        </mxCell>
        <mxCell id="aqW6yxv6mdnGChPtlhDb-51" value="Get All Artikels from the DB" style="strokeWidth=2;html=1;shape=mxgraph.flowchart.terminator;whiteSpace=wrap;" vertex="1" parent="1">
          <mxGeometry x="-493" y="800" width="100" height="60" as="geometry" />
        </mxCell>
        <mxCell id="aqW6yxv6mdnGChPtlhDb-54" value="" style="edgeStyle=orthogonalEdgeStyle;rounded=0;orthogonalLoop=1;jettySize=auto;html=1;entryX=0.012;entryY=0.668;entryDx=0;entryDy=0;entryPerimeter=0;" edge="1" parent="1" target="aqW6yxv6mdnGChPtlhDb-51">
          <mxGeometry relative="1" as="geometry">
            <mxPoint x="-610" y="840.0000000000001" as="sourcePoint" />
            <mxPoint x="-500" y="840" as="targetPoint" />
            <Array as="points" />
          </mxGeometry>
        </mxCell>
        <mxCell id="aqW6yxv6mdnGChPtlhDb-53" value="DB" style="strokeWidth=2;html=1;shape=mxgraph.flowchart.database;whiteSpace=wrap;" vertex="1" parent="1">
          <mxGeometry x="-660" y="800" width="60" height="60" as="geometry" />
        </mxCell>
        <mxCell id="aqW6yxv6mdnGChPtlhDb-59" value="" style="edgeStyle=orthogonalEdgeStyle;rounded=0;orthogonalLoop=1;jettySize=auto;html=1;" edge="1" parent="1" source="aqW6yxv6mdnGChPtlhDb-56" target="aqW6yxv6mdnGChPtlhDb-58">
          <mxGeometry relative="1" as="geometry" />
        </mxCell>
        <mxCell id="aqW6yxv6mdnGChPtlhDb-56" value="Put data into Objects" style="strokeWidth=2;html=1;shape=mxgraph.flowchart.terminator;whiteSpace=wrap;" vertex="1" parent="1">
          <mxGeometry x="-493" y="890" width="100" height="60" as="geometry" />
        </mxCell>
        <mxCell id="aqW6yxv6mdnGChPtlhDb-79" value="" style="edgeStyle=orthogonalEdgeStyle;rounded=0;orthogonalLoop=1;jettySize=auto;html=1;" edge="1" parent="1" source="aqW6yxv6mdnGChPtlhDb-58" target="aqW6yxv6mdnGChPtlhDb-78">
          <mxGeometry relative="1" as="geometry" />
        </mxCell>
        <mxCell id="aqW6yxv6mdnGChPtlhDb-58" value="Return Objects" style="strokeWidth=2;html=1;shape=mxgraph.flowchart.terminator;whiteSpace=wrap;" vertex="1" parent="1">
          <mxGeometry x="-493" y="980" width="100" height="60" as="geometry" />
        </mxCell>
        <mxCell id="aqW6yxv6mdnGChPtlhDb-62" value="" style="edgeStyle=orthogonalEdgeStyle;rounded=0;orthogonalLoop=1;jettySize=auto;html=1;" edge="1" parent="1" source="aqW6yxv6mdnGChPtlhDb-60" target="aqW6yxv6mdnGChPtlhDb-61">
          <mxGeometry relative="1" as="geometry" />
        </mxCell>
        <mxCell id="aqW6yxv6mdnGChPtlhDb-60" value="Add Artikel" style="strokeWidth=2;html=1;shape=mxgraph.flowchart.start_1;whiteSpace=wrap;" vertex="1" parent="1">
          <mxGeometry x="-3" y="610" width="100" height="60" as="geometry" />
        </mxCell>
        <mxCell id="aqW6yxv6mdnGChPtlhDb-64" value="" style="edgeStyle=orthogonalEdgeStyle;rounded=0;orthogonalLoop=1;jettySize=auto;html=1;" edge="1" parent="1" source="aqW6yxv6mdnGChPtlhDb-61" target="aqW6yxv6mdnGChPtlhDb-63">
          <mxGeometry relative="1" as="geometry" />
        </mxCell>
        <mxCell id="aqW6yxv6mdnGChPtlhDb-61" value="Read inputs" style="strokeWidth=2;html=1;shape=mxgraph.flowchart.terminator;whiteSpace=wrap;" vertex="1" parent="1">
          <mxGeometry x="-3" y="700" width="100" height="60" as="geometry" />
        </mxCell>
        <mxCell id="aqW6yxv6mdnGChPtlhDb-71" value="" style="edgeStyle=orthogonalEdgeStyle;rounded=0;orthogonalLoop=1;jettySize=auto;html=1;" edge="1" parent="1" source="aqW6yxv6mdnGChPtlhDb-63" target="aqW6yxv6mdnGChPtlhDb-68">
          <mxGeometry relative="1" as="geometry" />
        </mxCell>
        <mxCell id="aqW6yxv6mdnGChPtlhDb-63" value="Define a new Aritkel object" style="strokeWidth=2;html=1;shape=mxgraph.flowchart.terminator;whiteSpace=wrap;" vertex="1" parent="1">
          <mxGeometry x="-3" y="790" width="100" height="60" as="geometry" />
        </mxCell>
        <mxCell id="aqW6yxv6mdnGChPtlhDb-67" value="" style="edgeStyle=orthogonalEdgeStyle;rounded=0;orthogonalLoop=1;jettySize=auto;html=1;" edge="1" parent="1" source="aqW6yxv6mdnGChPtlhDb-68" target="aqW6yxv6mdnGChPtlhDb-70">
          <mxGeometry relative="1" as="geometry" />
        </mxCell>
        <mxCell id="aqW6yxv6mdnGChPtlhDb-73" value="" style="edgeStyle=orthogonalEdgeStyle;rounded=0;orthogonalLoop=1;jettySize=auto;html=1;" edge="1" parent="1" source="aqW6yxv6mdnGChPtlhDb-68" target="aqW6yxv6mdnGChPtlhDb-72">
          <mxGeometry relative="1" as="geometry" />
        </mxCell>
        <mxCell id="aqW6yxv6mdnGChPtlhDb-68" value="Save in the DB" style="strokeWidth=2;html=1;shape=mxgraph.flowchart.terminator;whiteSpace=wrap;" vertex="1" parent="1">
          <mxGeometry x="-3" y="880" width="100" height="60" as="geometry" />
        </mxCell>
        <mxCell id="aqW6yxv6mdnGChPtlhDb-70" value="DB" style="strokeWidth=2;html=1;shape=mxgraph.flowchart.database;whiteSpace=wrap;" vertex="1" parent="1">
          <mxGeometry x="-170" y="880" width="60" height="60" as="geometry" />
        </mxCell>
        <mxCell id="aqW6yxv6mdnGChPtlhDb-77" value="" style="edgeStyle=orthogonalEdgeStyle;rounded=0;orthogonalLoop=1;jettySize=auto;html=1;" edge="1" parent="1" source="aqW6yxv6mdnGChPtlhDb-72" target="aqW6yxv6mdnGChPtlhDb-76">
          <mxGeometry relative="1" as="geometry" />
        </mxCell>
        <mxCell id="aqW6yxv6mdnGChPtlhDb-72" value="Reload the list" style="strokeWidth=2;html=1;shape=mxgraph.flowchart.terminator;whiteSpace=wrap;" vertex="1" parent="1">
          <mxGeometry x="-3" y="960" width="100" height="60" as="geometry" />
        </mxCell>
        <mxCell id="aqW6yxv6mdnGChPtlhDb-74" value="End" style="strokeWidth=2;html=1;shape=mxgraph.flowchart.start_1;whiteSpace=wrap;" vertex="1" parent="1">
          <mxGeometry x="270" y="720" width="100" height="60" as="geometry" />
        </mxCell>
        <mxCell id="aqW6yxv6mdnGChPtlhDb-76" value="End" style="strokeWidth=2;html=1;shape=mxgraph.flowchart.start_1;whiteSpace=wrap;" vertex="1" parent="1">
          <mxGeometry x="-3" y="1050" width="100" height="60" as="geometry" />
        </mxCell>
        <mxCell id="aqW6yxv6mdnGChPtlhDb-78" value="End" style="strokeWidth=2;html=1;shape=mxgraph.flowchart.start_1;whiteSpace=wrap;" vertex="1" parent="1">
          <mxGeometry x="-493" y="1070" width="100" height="60" as="geometry" />
        </mxCell>
        <mxCell id="aqW6yxv6mdnGChPtlhDb-81" value="End" style="strokeWidth=2;html=1;shape=mxgraph.flowchart.start_1;whiteSpace=wrap;" vertex="1" parent="1">
          <mxGeometry x="-160" y="540" width="100" height="60" as="geometry" />
        </mxCell>
      </root>
    </mxGraphModel>
  </diagram>
</mxfile>
